<svg width="64" height="64" viewBox="0 0 64 64" fill="none" xmlns="http://www.w3.org/2000/svg">
<rect width="64" height="64" rx="12" fill="#1B1B1B"/>
<path d="M22.2497 41C23.6663 39.9166 25.2497 39.0625 26.9997 38.4375C28.7497 37.8125 30.583 37.5 32.4997 37.5C34.4163 37.5 36.2497 37.8125 37.9997 38.4375C39.7497 39.0625 41.333 39.9166 42.7497 41C43.7219 39.8611 44.4788 38.5694 45.0205 37.125C45.5622 35.6805 45.833 34.1389 45.833 32.5C45.833 28.8055 44.5344 25.6597 41.9372 23.0625C39.34 20.4653 36.1941 19.1666 32.4997 19.1666C28.8052 19.1666 25.6594 20.4653 23.0622 23.0625C20.465 25.6597 19.1663 28.8055 19.1663 32.5C19.1663 34.1389 19.4372 35.6805 19.9788 37.125C20.5205 38.5694 21.2775 39.8611 22.2497 41ZM32.4997 34.1666C30.8608 34.1666 29.4788 33.6041 28.3538 32.4791C27.2288 31.3541 26.6663 29.9722 26.6663 28.3333C26.6663 26.6944 27.2288 25.3125 28.3538 24.1875C29.4788 23.0625 30.8608 22.5 32.4997 22.5C34.1386 22.5 35.5205 23.0625 36.6455 24.1875C37.7705 25.3125 38.333 26.6944 38.333 28.3333C38.333 29.9722 37.7705 31.3541 36.6455 32.4791C35.5205 33.6041 34.1386 34.1666 32.4997 34.1666ZM32.4997 49.1666C30.1941 49.1666 28.0275 48.7291 25.9997 47.8541C23.9719 46.9792 22.208 45.7917 20.708 44.2916C19.208 42.7916 18.0205 41.0278 17.1455 39C16.2705 36.9722 15.833 34.8055 15.833 32.5C15.833 30.1944 16.2705 28.0278 17.1455 26C18.0205 23.9722 19.208 22.2083 20.708 20.7083C22.208 19.2083 23.9719 18.0208 25.9997 17.1458C28.0275 16.2708 30.1941 15.8333 32.4997 15.8333C34.8052 15.8333 36.9719 16.2708 38.9997 17.1458C41.0275 18.0208 42.7913 19.2083 44.2913 20.7083C45.7913 22.2083 46.9788 23.9722 47.8538 26C48.7288 28.0278 49.1663 30.1944 49.1663 32.5C49.1663 34.8055 48.7288 36.9722 47.8538 39C46.9788 41.0278 45.7913 42.7916 44.2913 44.2916C42.7913 45.7917 41.0275 46.9792 38.9997 47.8541C36.9719 48.7291 34.8052 49.1666 32.4997 49.1666Z" fill="#5E5E5E"/>
</svg>
