<svg width="12" height="13" viewBox="0 0 12 13" fill="none" xmlns="http://www.w3.org/2000/svg">
<path d="M3.5 11.0001C3.225 11.0001 2.98958 10.9021 2.79375 10.7063C2.59792 10.5105 2.5 10.2751 2.5 10.0001V3.50006C2.35833 3.50006 2.23958 3.45214 2.14375 3.35631C2.04792 3.26048 2 3.14173 2 3.00006C2 2.85839 2.04792 2.73964 2.14375 2.64381C2.23958 2.54798 2.35833 2.50006 2.5 2.50006H4.5C4.5 2.35839 4.54792 2.23964 4.64375 2.14381C4.73958 2.04798 4.85833 2.00006 5 2.00006H7C7.14167 2.00006 7.26042 2.04798 7.35625 2.14381C7.45208 2.23964 7.5 2.35839 7.5 2.50006H9.5C9.64167 2.50006 9.76042 2.54798 9.85625 2.64381C9.95208 2.73964 10 2.85839 10 3.00006C10 3.14173 9.95208 3.26048 9.85625 3.35631C9.76042 3.45214 9.64167 3.50006 9.5 3.50006V10.0001C9.5 10.2751 9.40208 10.5105 9.20625 10.7063C9.01042 10.9021 8.775 11.0001 8.5 11.0001H3.5ZM5 9.00006C5.14167 9.00006 5.26042 8.95214 5.35625 8.85631C5.45208 8.76048 5.5 8.64173 5.5 8.50006V5.00006C5.5 4.85839 5.45208 4.73964 5.35625 4.64381C5.26042 4.54798 5.14167 4.50006 5 4.50006C4.85833 4.50006 4.73958 4.54798 4.64375 4.64381C4.54792 4.73964 4.5 4.85839 4.5 5.00006V8.50006C4.5 8.64173 4.54792 8.76048 4.64375 8.85631C4.73958 8.95214 4.85833 9.00006 5 9.00006ZM7 9.00006C7.14167 9.00006 7.26042 8.95214 7.35625 8.85631C7.45208 8.76048 7.5 8.64173 7.5 8.50006V5.00006C7.5 4.85839 7.45208 4.73964 7.35625 4.64381C7.26042 4.54798 7.14167 4.50006 7 4.50006C6.85833 4.50006 6.73958 4.54798 6.64375 4.64381C6.54792 4.73964 6.5 4.85839 6.5 5.00006V8.50006C6.5 8.64173 6.54792 8.76048 6.64375 8.85631C6.73958 8.95214 6.85833 9.00006 7 9.00006Z" fill="white"/>
</svg>