<svg width="12" height="12" viewBox="0 0 12 12" fill="none" xmlns="http://www.w3.org/2000/svg">
<path d="M2.5 9.50006H3.2125L8.1 4.61256L7.3875 3.90006L2.5 8.78756V9.50006ZM2 10.5001C1.85833 10.5001 1.73958 10.4521 1.64375 10.3563C1.54792 10.2605 1.5 10.1417 1.5 10.0001V8.78756C1.5 8.65423 1.525 8.52714 1.575 8.40631C1.625 8.28548 1.69583 8.17923 1.7875 8.08756L8.1 1.78756C8.2 1.69589 8.31042 1.62506 8.43125 1.57506C8.55208 1.52506 8.67917 1.50006 8.8125 1.50006C8.94583 1.50006 9.075 1.52506 9.2 1.57506C9.325 1.62506 9.43333 1.70006 9.525 1.80006L10.2125 2.50006C10.3125 2.59173 10.3854 2.70006 10.4313 2.82506C10.4771 2.95006 10.5 3.07506 10.5 3.20006C10.5 3.33339 10.4771 3.46048 10.4313 3.58131C10.3854 3.70214 10.3125 3.81256 10.2125 3.91256L3.9125 10.2126C3.82083 10.3042 3.71458 10.3751 3.59375 10.4251C3.47292 10.4751 3.34583 10.5001 3.2125 10.5001H2ZM7.7375 4.26256L7.3875 3.90006L8.1 4.61256L7.7375 4.26256Z" fill="white"/>
</svg>
