<svg width="12" height="13" viewBox="0 0 12 13" fill="none" xmlns="http://www.w3.org/2000/svg">
<path d="M3 11.5001C2.725 11.5001 2.48958 11.4021 2.29375 11.2063C2.09792 11.0105 2 10.7751 2 10.5001V5.50006C2 5.22506 2.09792 4.98964 2.29375 4.79381C2.48958 4.59798 2.725 4.50006 3 4.50006H7.5V3.50006C7.5 3.08339 7.35417 2.72923 7.0625 2.43756C6.77083 2.14589 6.41667 2.00006 6 2.00006C5.65 2.00006 5.34375 2.10631 5.08125 2.31881C4.81875 2.53131 4.64167 2.79589 4.55 3.11256C4.51667 3.22923 4.44792 3.32298 4.34375 3.39381C4.23958 3.46464 4.125 3.50006 4 3.50006C3.85833 3.50006 3.73958 3.45423 3.64375 3.36256C3.54792 3.27089 3.5125 3.16256 3.5375 3.03756C3.65417 2.46256 3.94167 1.97923 4.4 1.58756C4.85833 1.19589 5.39167 1.00006 6 1.00006C6.69167 1.00006 7.28125 1.24381 7.76875 1.73131C8.25625 2.21881 8.5 2.80839 8.5 3.50006V4.50006H9C9.275 4.50006 9.51042 4.59798 9.70625 4.79381C9.90208 4.98964 10 5.22506 10 5.50006V10.5001C10 10.7751 9.90208 11.0105 9.70625 11.2063C9.51042 11.4021 9.275 11.5001 9 11.5001H3ZM3 10.5001H9V5.50006H3V10.5001ZM6 9.00006C6.275 9.00006 6.51042 8.90214 6.70625 8.70631C6.90208 8.51048 7 8.27506 7 8.00006C7 7.72506 6.90208 7.48964 6.70625 7.29381C6.51042 7.09798 6.275 7.00006 6 7.00006C5.725 7.00006 5.48958 7.09798 5.29375 7.29381C5.09792 7.48964 5 7.72506 5 8.00006C5 8.27506 5.09792 8.51048 5.29375 8.70631C5.48958 8.90214 5.725 9.00006 6 9.00006Z" fill="white"/>
</svg>
